<?xml version="1.0" encoding="UTF-8" standalone="no"?>
<svg
   viewBox="0 0 24 24"
   width="24"
   height="24"
   version="1.1"
   id="svg1"
   sodipodi:docname="mail-folder-inbox.svg"
   inkscape:version="1.4.4 (unknown)"
   xmlns:inkscape="http://www.inkscape.org/namespaces/inkscape"
   xmlns:sodipodi="http://sodipodi.sourceforge.net/DTD/sodipodi-0.dtd"
   xmlns:xlink="http://www.w3.org/1999/xlink"
   xmlns="http://www.w3.org/2000/svg"
   xmlns:svg="http://www.w3.org/2000/svg">
  <sodipodi:namedview
     id="namedview1"
     pagecolor="#ffffff"
     bordercolor="#000000"
     borderopacity="0.25"
     inkscape:showpageshadow="2"
     inkscape:pageopacity="0.0"
     inkscape:pagecheckerboard="0"
     inkscape:deskcolor="#d1d1d1"
     inkscape:zoom="31.541667"
     inkscape:cx="12.015852"
     inkscape:cy="12"
     inkscape:window-width="1920"
     inkscape:window-height="994"
     inkscape:window-x="0"
     inkscape:window-y="0"
     inkscape:window-maximized="1"
     inkscape:current-layer="svg1" />
  <defs
     id="defs3051">
    <linearGradient
       id="linearGradient2"
       inkscape:collect="always">
      <stop
         style="stop-color:#b380ff;stop-opacity:1"
         offset="0"
         id="stop2" />
      <stop
         style="stop-color:#00ccff;stop-opacity:1"
         offset="1"
         id="stop3" />
    </linearGradient>
    <style
       type="text/css"
       id="current-color-scheme">
      .ColorScheme-Text {
        color:#eff0f1
      }
      </style>
    <linearGradient
       inkscape:collect="always"
       xlink:href="#linearGradient2"
       id="linearGradient3"
       x1="2"
       y1="13.5"
       x2="20"
       y2="13.5"
       gradientUnits="userSpaceOnUse" />
  </defs>
  <g
     transform="translate(1,1)"
     id="g1"
     style="fill:url(#linearGradient3);fill-opacity:1">
    <path
       style="fill:url(#linearGradient3);fill-opacity:1;stroke:none"
       d="M 5.9550781 8 L 2 14.849609 L 2 16.310547 L 2 19 L 6 19 L 16 19 L 20 19 L 20 16.310547 L 20 14.849609 L 16.044922 8 L 16 8 L 13 8 L 9 8 L 7.109375 8 L 5.9550781 8 z M 6.53125 9 L 9 9 L 13 9 L 15.46875 9 L 18.933594 15 L 16 15 L 15 17 L 7 17 L 6 15 L 3.0664062 15 L 6.53125 9 z "
       class="ColorScheme-Text"
       id="path1" />
  </g>
</svg>
