<?xml version="1.0" encoding="UTF-8" standalone="no"?>
<svg
   viewBox="0 0 22 22"
   version="1.1"
   id="svg6"
   sodipodi:docname="folder-log.svg"
   inkscape:version="1.4.4 (unknown)"
   xmlns:inkscape="http://www.inkscape.org/namespaces/inkscape"
   xmlns:sodipodi="http://sodipodi.sourceforge.net/DTD/sodipodi-0.dtd"
   xmlns="http://www.w3.org/2000/svg"
   xmlns:svg="http://www.w3.org/2000/svg">
  <sodipodi:namedview
     id="namedview8"
     pagecolor="#ffffff"
     bordercolor="#666666"
     borderopacity="1.0"
     inkscape:pageshadow="2"
     inkscape:pageopacity="0.0"
     inkscape:pagecheckerboard="0"
     showgrid="false"
     inkscape:zoom="28.545455"
     inkscape:cx="11"
     inkscape:cy="11.017516"
     inkscape:window-width="1920"
     inkscape:window-height="994"
     inkscape:window-x="0"
     inkscape:window-y="0"
     inkscape:window-maximized="1"
     inkscape:current-layer="svg6"
     inkscape:showpageshadow="2"
     inkscape:deskcolor="#d1d1d1" />
  <defs
     id="defs3051">
    <style
       type="text/css"
       id="current-color-scheme">
      .ColorScheme-Text {
        color:#232629
      }
      </style>
  </defs>
  <path
     style="fill:#c83771;fill-opacity:1"
     d="M 3 3 L 3 4 L 19 4 L 19 3 L 3 3 z M 3.5 6 A 0.5 0.5 0 0 0 3 6.5 A 0.5 0.5 0 0 0 3.5 7 A 0.5 0.5 0 0 0 4 6.5 A 0.5 0.5 0 0 0 3.5 6 z M 6 6 L 6 7 L 17 7 L 17 6 L 6 6 z M 6 9 L 6 10 L 11 10 L 11 9 L 6 9 z M 3.5 12 A 0.5 0.5 0 0 0 3 12.5 A 0.5 0.5 0 0 0 3.5 13 A 0.5 0.5 0 0 0 4 12.5 A 0.5 0.5 0 0 0 3.5 12 z M 6 12 L 6 13 L 17 13 L 17 12 L 6 12 z M 6 15 L 6 16 L 11 16 L 11 15 L 6 15 z M 3 18 L 3 19 L 19 19 L 19 18 L 3 18 z "
     class="ColorScheme-Text"
     id="path4" />
</svg>
