<?xml version="1.0" encoding="UTF-8" standalone="no"?>
<svg
   viewBox="0 0 22 22"
   version="1.1"
   id="svg1"
   sodipodi:docname="folder-copy.svg"
   inkscape:version="1.4.4 (unknown)"
   xmlns:inkscape="http://www.inkscape.org/namespaces/inkscape"
   xmlns:sodipodi="http://sodipodi.sourceforge.net/DTD/sodipodi-0.dtd"
   xmlns:xlink="http://www.w3.org/1999/xlink"
   xmlns="http://www.w3.org/2000/svg"
   xmlns:svg="http://www.w3.org/2000/svg">
  <sodipodi:namedview
     id="namedview1"
     pagecolor="#ffffff"
     bordercolor="#000000"
     borderopacity="0.25"
     inkscape:showpageshadow="2"
     inkscape:pageopacity="0.0"
     inkscape:pagecheckerboard="0"
     inkscape:deskcolor="#d1d1d1"
     inkscape:zoom="34.409091"
     inkscape:cx="11.014531"
     inkscape:cy="11"
     inkscape:window-width="1920"
     inkscape:window-height="994"
     inkscape:window-x="0"
     inkscape:window-y="0"
     inkscape:window-maximized="1"
     inkscape:current-layer="svg1" />
  <defs
     id="defs3051">
    <linearGradient
       id="linearGradient1"
       inkscape:collect="always">
      <stop
         style="stop-color:#ffb380;stop-opacity:1"
         offset="0"
         id="stop1" />
      <stop
         style="stop-color:#ffcc00;stop-opacity:1"
         offset="1"
         id="stop2" />
    </linearGradient>
    <style
       type="text/css"
       id="current-color-scheme">
      .ColorScheme-Text {
        color:#eff0f1;
      }
      </style>
    <linearGradient
       inkscape:collect="always"
       xlink:href="#linearGradient1"
       id="linearGradient2"
       x1="3.077"
       y1="11"
       x2="18.92"
       y2="11"
       gradientUnits="userSpaceOnUse" />
  </defs>
  <path
     style="opacity:1;fill:url(#linearGradient2);fill-opacity:1;stroke:none"
     d="M4.95 3.078A1.88 1.88 0 0 0 3.077 4.95v8.102a1.88 1.88 0 0 0 1.871 1.87h2.13v2.13a1.88 1.88 0 0 0 1.87 1.87h8.102a1.88 1.88 0 0 0 1.87-1.87v-6.819a1.88 1.88 0 0 0-1.87-1.87h-2.13v-2.13a1.88 1.88 0 0 0-1.87-1.87H9.6l-.66-.66-.325-.325-.299-.299H4.95zm0 .623h2.927l.72.72-3.003 2.99H3.7V4.948c0-.69.557-1.248 1.248-1.248zm2.466 2.961h6.883v1.7h-.7l-.66-.66-.324-.325-.299-.299H8.95A1.88 1.88 0 0 0 7.08 8.95v5.35h-2.13a1.244 1.244 0 0 1-1.248-1.248V8.158h2.213v-.006l.006.006 1.496-1.496zm1.533 1.04h2.928l.72.72-3.003 2.988H7.7V8.95c0-.692.557-1.249 1.248-1.249zm2.467 2.96h6.883v6.389c0 .69-.557 1.248-1.248 1.248H8.949a1.244 1.244 0 0 1-1.248-1.248v-4.893h2.213v-.006l.006.006 1.496-1.496z"
     class="ColorScheme-Text"
     id="path1" />
</svg>
