<?xml version="1.0" encoding="UTF-8" standalone="no"?>
<svg
   viewBox="0 0 22 22"
   id="svg6"
   version="1.1"
   sodipodi:docname="folder-playonlinux.svg"
   inkscape:version="1.4.4 (unknown)"
   xmlns:inkscape="http://www.inkscape.org/namespaces/inkscape"
   xmlns:sodipodi="http://sodipodi.sourceforge.net/DTD/sodipodi-0.dtd"
   xmlns:xlink="http://www.w3.org/1999/xlink"
   xmlns="http://www.w3.org/2000/svg"
   xmlns:svg="http://www.w3.org/2000/svg">
  <sodipodi:namedview
     id="namedview1"
     pagecolor="#ffffff"
     bordercolor="#000000"
     borderopacity="0.25"
     inkscape:showpageshadow="2"
     inkscape:pageopacity="0.0"
     inkscape:pagecheckerboard="0"
     inkscape:deskcolor="#d1d1d1"
     inkscape:zoom="34.409091"
     inkscape:cx="11.014531"
     inkscape:cy="11"
     inkscape:window-width="1920"
     inkscape:window-height="994"
     inkscape:window-x="0"
     inkscape:window-y="0"
     inkscape:window-maximized="1"
     inkscape:current-layer="svg6" />
  <defs
     id="defs3051">
    <linearGradient
       id="linearGradient1"
       inkscape:collect="always">
      <stop
         style="stop-color:#8d5fd3;stop-opacity:1"
         offset="0"
         id="stop1" />
      <stop
         style="stop-color:#ffd42a;stop-opacity:1"
         offset="0.36244181"
         id="stop4" />
      <stop
         style="stop-color:#ff55dd;stop-opacity:1"
         offset="0.70490772"
         id="stop3" />
      <stop
         style="stop-color:#00ccff;stop-opacity:1"
         offset="1"
         id="stop2" />
    </linearGradient>
    <style
       type="text/css"
       id="current-color-scheme">
      .ColorScheme-Text {
        color:#eff0f1;
      }
      </style>
    <linearGradient
       inkscape:collect="always"
       xlink:href="#linearGradient1"
       id="linearGradient2"
       x1="3.8463101"
       y1="17.713104"
       x2="17.688669"
       y2="3.9667366"
       gradientUnits="userSpaceOnUse" />
  </defs>
  <path
     style="opacity:1;fill:url(#linearGradient2);fill-opacity:1;stroke:none"
     d="M8.275 3.03c-1.347.1-2.484.957-3.39 1.863-.724.725-1.394 1.603-1.707 2.608-.314 1.005-.124 2.293.864 3.08.302.242.65.308.984.43-.334.12-.682.186-.985.429a2.998 2.998 0 0 0-.34.316c-.775.845-.8 2.025-.46 2.95.337.927.966 1.743 1.644 2.421.725.725 1.603 1.395 2.61 1.708 1.004.315 2.291.125 3.08-.864.24-.302.307-.65.428-.984.12.335.187.682.429.984.787.989 2.074 1.179 3.08.865 1.005-.314 1.884-.984 2.608-1.708.725-.725 1.394-1.603 1.708-2.609.314-1.005.124-2.293-.864-3.08-.303-.242-.65-.308-.984-.429.334-.121.681-.187.984-.429.989-.787 1.178-2.075.865-3.08-.315-1.005-.984-1.883-1.709-2.608-.68-.68-1.495-1.308-2.42-1.646-.927-.337-2.106-.315-2.95.462a3.014 3.014 0 0 0-.318.34c-.242.302-.308.65-.429.984-.121-.334-.188-.682-.43-.983a2.721 2.721 0 0 0-2.298-1.02zm.065.887c.573-.042 1.111.147 1.54.686 1.143 1.435.234 4.074 1.123 6.407.888-2.333-.021-4.972 1.123-6.407a2.16 2.16 0 0 1 .224-.24c1.157-1.063 2.914-.07 4.142 1.158 1.31 1.31 2.353 3.222.92 4.366-1.437 1.143-4.076.234-6.409 1.123 2.332.89 4.972-.021 6.407 1.124 1.435 1.143.392 3.055-.918 4.366-1.31 1.31-3.222 2.353-4.366.918-1.144-1.436-.235-4.075-1.123-6.408-.889 2.333.021 4.972-1.123 6.408-1.143 1.435-3.056.391-4.367-.918-1.228-1.228-2.22-2.986-1.157-4.142.07-.079.15-.153.24-.224 1.434-1.145 4.073-.235 6.407-1.124-2.333-.889-4.973.022-6.408-1.123-1.434-1.143-.391-3.056.919-4.366.819-.819 1.872-1.533 2.826-1.604z"
     class="ColorScheme-Text"
     id="path1" />
</svg>
