<?xml version="1.0" encoding="UTF-8" standalone="no"?>
<!-- Generator: Gravit.io -->

<svg
   style="isolation:isolate"
   viewBox="0 0 16 16"
   width="16"
   height="16"
   version="1.1"
   id="svg2"
   sodipodi:docname="preferences-system-windows-move.svg"
   inkscape:version="1.4.4 (unknown)"
   xmlns:inkscape="http://www.inkscape.org/namespaces/inkscape"
   xmlns:sodipodi="http://sodipodi.sourceforge.net/DTD/sodipodi-0.dtd"
   xmlns="http://www.w3.org/2000/svg"
   xmlns:svg="http://www.w3.org/2000/svg">
  <defs
     id="defs2" />
  <sodipodi:namedview
     id="namedview2"
     pagecolor="#ffffff"
     bordercolor="#000000"
     borderopacity="0.25"
     inkscape:showpageshadow="2"
     inkscape:pageopacity="0.0"
     inkscape:pagecheckerboard="0"
     inkscape:deskcolor="#d1d1d1"
     inkscape:document-units="px"
     inkscape:zoom="16.727495"
     inkscape:cx="11.418327"
     inkscape:cy="12.046036"
     inkscape:window-width="1920"
     inkscape:window-height="994"
     inkscape:window-x="0"
     inkscape:window-y="0"
     inkscape:window-maximized="1"
     inkscape:current-layer="svg2" />
  <linearGradient
     id="_lgradient_2"
     x1="0.22078557"
     y1="0.047239967"
     x2="0.9022491"
     y2="0.90614605"
     gradientTransform="matrix(13.51172,0,0,13,1.24414,1.5)"
     gradientUnits="userSpaceOnUse">
    <stop
       offset="2.608695652173913%"
       stop-opacity="1"
       style="stop-color:rgb(237,184,212)"
       id="stop1" />
    <stop
       offset="98.69565217391305%"
       stop-opacity="1"
       style="stop-color:rgb(162,110,245)"
       id="stop2" />
  </linearGradient>
  <path
     d="m 2.3940737,5.4615215 h 4.3122512 c 0.1586908,0 0.2874834,0.1287925 0.2874834,0.2874834 v 1.9318885 c 0,0.1586909 -0.1287926,0.2874834 -0.2874834,0.2874834 H 2.3940737 c -0.1586909,0 -0.2874835,-0.1287925 -0.2874835,-0.2874834 V 5.7490049 c 0,-0.1586909 0.1287926,-0.2874834 0.2874835,-0.2874834 z m 6.8996019,0 h 4.3122514 c 0.158691,0 0.287483,0.1287925 0.287483,0.2874834 v 1.9318885 c 0,0.1586909 -0.128792,0.2874834 -0.287483,0.2874834 H 9.2936756 c -0.1586908,0 -0.2874834,-0.1287925 -0.2874834,-0.2874834 V 5.7490049 c 0,-0.1586909 0.1287926,-0.2874834 0.2874834,-0.2874834 z m -3.449801,5.6691725 h 4.3122514 c 0.158691,0 0.287483,0.128793 0.287483,0.287484 v 1.931888 c 0,0.158691 -0.128792,0.287484 -0.287483,0.287484 H 5.8438746 c -0.1586908,0 -0.2874834,-0.128793 -0.2874834,-0.287484 v -1.931888 c 0,-0.158691 0.1287926,-0.287484 0.2874834,-0.287484 z M 2.8252988,3.5123839 v 0 c 0,0.3173817 -0.2575852,0.5749668 -0.5749668,0.5749668 v 0 c -0.3173817,0 -0.5749669,-0.2575851 -0.5749669,-0.5749668 v 0 -1.4374171 C 1.6753651,1.7575851 1.9329503,1.5 2.250332,1.5 h 11.499337 c 0.317381,0 0.574966,0.2575851 0.574966,0.5749668 v 1.4374171 0 c 0,0.3173817 -0.257585,0.5749668 -0.574966,0.5749668 v 0 c -0.317382,0 -0.574967,-0.2575851 -0.574967,-0.5749668 v 0 -0.5749668 c 0,-0.1586909 -0.128793,-0.2874834 -0.287484,-0.2874834 H 3.1127822 c -0.1586909,0 -0.2874834,0.1287925 -0.2874834,0.2874834 z M 3.687749,12.999337 v 0 c 0.3173817,0 0.5749669,0.257585 0.5749669,0.574966 v 0 c 0,0.317382 -0.2575852,0.574967 -0.5749669,0.574967 v 0 H 2.250332 c -0.3173817,0 -0.5749669,-0.257585 -0.5749669,-0.574967 v -3.449801 0 c 0,-0.317381 0.2575852,-0.574966 0.5749669,-0.574966 v 0 c 0.3173816,0 0.5749668,0.257585 0.5749668,0.574966 v 0 2.587351 c 0,0.158691 0.1287925,0.287484 0.2874834,0.287484 z M 1.8191068,4.5990712 h 5.4621849 c 0.3173817,0 0.5749668,0.2575851 0.5749668,0.5749668 v 3.0818222 c 0,0.3173817 -0.2575851,0.5749669 -0.5749668,0.5749669 H 1.8191068 C 1.5017251,8.8308271 1.24414,8.5732419 1.24414,8.2558602 V 5.174038 c 0,-0.3173817 0.2575851,-0.5749668 0.5749668,-0.5749668 z m 6.899602,0 h 5.4621852 c 0.317381,0 0.574966,0.2575851 0.574966,0.5749668 v 3.0818222 c 0,0.3173817 -0.257585,0.5749669 -0.574966,0.5749669 H 8.7187088 c -0.3173817,0 -0.5749669,-0.2575852 -0.5749669,-0.5749669 V 5.174038 c 0,-0.3173817 0.2575852,-0.5749668 0.5749669,-0.5749668 z m -3.449801,5.6691728 h 5.4621852 c 0.317381,0 0.574967,0.257585 0.574967,0.574967 v 3.081822 C 11.30606,14.242415 11.048474,14.5 10.731093,14.5 H 5.2689078 C 4.9515261,14.5 4.693941,14.242415 4.693941,13.925033 v -3.081822 c 0,-0.317382 0.2575851,-0.574967 0.5749668,-0.574967 z m 7.9057942,-0.143742 v 0 c 0,-0.317381 0.257585,-0.574966 0.574967,-0.574966 v 0 c 0.317381,0 0.574966,0.257585 0.574966,0.574966 v 0 3.449801 c 0,0.317382 -0.257585,0.574967 -0.574966,0.574967 h -1.437418 v 0 c -0.317381,0 -0.574966,-0.257585 -0.574966,-0.574967 v 0 c 0,-0.317381 0.257585,-0.574966 0.574966,-0.574966 v 0 h 0.574967 c 0.158691,0 0.287484,-0.128793 0.287484,-0.287484 z"
     fill-rule="evenodd"
     fill="url(#_lgradient_2)"
     id="path2"
     style="fill:url(#_lgradient_2);stroke-width:0.287483" />
</svg>
