<?xml version="1.0" encoding="UTF-8" standalone="no"?>
<svg
   version="1.1"
   viewBox="0 0 22 22"
   id="svg3"
   sodipodi:docname="folder-print.svg"
   inkscape:version="1.4.4 (unknown)"
   xmlns:inkscape="http://www.inkscape.org/namespaces/inkscape"
   xmlns:sodipodi="http://sodipodi.sourceforge.net/DTD/sodipodi-0.dtd"
   xmlns="http://www.w3.org/2000/svg"
   xmlns:svg="http://www.w3.org/2000/svg">
  <sodipodi:namedview
     id="namedview3"
     pagecolor="#ffffff"
     bordercolor="#000000"
     borderopacity="0.25"
     inkscape:showpageshadow="2"
     inkscape:pageopacity="0.0"
     inkscape:pagecheckerboard="0"
     inkscape:deskcolor="#d1d1d1"
     inkscape:zoom="34.409091"
     inkscape:cx="11.014531"
     inkscape:cy="11"
     inkscape:window-width="1920"
     inkscape:window-height="994"
     inkscape:window-x="0"
     inkscape:window-y="0"
     inkscape:window-maximized="1"
     inkscape:current-layer="svg3" />
  <defs
     id="defs1">
    <style
       type="text/css"
       id="style1">.ColorScheme-Text {
        color:#d8dee9;
      }</style>
  </defs>
  <g
     class="ColorScheme-Text"
     fill="currentColor"
     id="g3"
     style="fill:#8d5fd3">
    <path
       d="m8 1c-1.108 0-2 0.892-2 2v2h1v-2c0-0.554 0.446-1 1-1h6c0.554 0 1.0046 0.44602 1 1v2h1v-2c0-1.108-0.892-2-2-2z"
       id="path1"
       style="fill:#8d5fd3" />
    <rect
       x="8"
       y="13"
       width="6"
       height="1"
       id="rect1"
       style="fill:#8d5fd3" />
    <rect
       x="8"
       y="16"
       width="6"
       height="1"
       id="rect2"
       style="fill:#8d5fd3" />
    <path
       d="m5 4c-1.662 0-3 1.338-3 3v6c0 1.662 1.338 3 3 3h1v-1h-1c-1.108 0-2-0.892-2-2v-6c0-1.108 0.892-2 2-2h12c1.108 0 2 0.892 2 2v6c0 1.108-0.892 2-2 2h-1v1h1c1.662 0 3-1.338 3-3v-6c0-1.662-1.338-3-3-3h-12z"
       id="path2"
       style="fill:#8d5fd3" />
    <path
       d="m8 10c-1.108 0-2 0.892-2 2v6c0 1.108 0.892 2 2 2h6c1.108 0 2-0.892 2-2v-6c0-1.108-0.892-2-2-2zm0 1h6c0.554 0 1 0.446 1 1v6c0 0.554-0.446 1-1 1h-6c-0.554 0-1-0.446-1-1v-6c0-0.554 0.446-1 1-1z"
       id="path3"
       style="fill:#8d5fd3" />
    <rect
       x="16"
       y="7"
       width="1"
       height="1"
       id="rect3"
       style="fill:#8d5fd3" />
  </g>
</svg>
